<svg xmlns="http://www.w3.org/2000/svg" viewBox="0 0 90 90"><style>.a{fill:#241c1c;}.b{fill:#fff;}</style><title>  restaurant map location</title><defs><radialGradient gradientUnits="userSpaceOnUse" cy="1152.4" cx="-329.6" gradientTransform="matrix(-.19533 9.4615 -3.6373 -.091003 3797.5 4148)" r="96"><stop offset="0" stop-color="#fff"/><stop offset="1" stop-color="#ccc"/></radialGradient><linearGradient y2="1111.9" xlink:href="#linearGradient3807-8" gradientUnits="userSpaceOnUse" x2="-1013.7" y1="996" x1="-1020.1"/><linearGradient><stop offset="0" stop-color="#ff4141"/><stop offset="1" stop-color="#800000"/></linearGradient><linearGradient y2="429.5" gradientUnits="userSpaceOnUse" x2="121.7" y1="392.4" x1="123.2"><stop offset="0" stop-color="#214478"/><stop offset="1" style="stop-color:#214478;stop-opacity:0"/></linearGradient></defs><g transform="translate(0 -962.36)"><flowRoot style="font-family:Sans;font-size:30px;letter-spacing:0px;line-height:100%;word-spacing:0px"><flowPara>  in</flowPara></flowRoot><path d="m161.1 423.5a35.3 38 0 1 1-70.6 0 35.3 38 0 1 1 70.6 0z" style="fill:#3771c8;stroke-linejoin:round;stroke-width:0.6;stroke:#272f79"/><path d="m161.1 423.5a35.3 38 0 1 1-70.6 0 35.3 38 0 1 1 70.6 0z" fill="url(#linearGradient3833-7)"/><path d="m214.8 321.2a121.9 66.1 0 1 1-243.9 0 121.9 66.1 0 1 1 243.9 0z" style="fill:#e3dbdb;opacity:0.2"/><g transform="matrix(0.1286 0 0 0.12253 170.66 874.29)" fill="url(#linearGradient3813-6)"><path d="m-995.7 1225.8c-8.9-43-35.2-84.7-50.1-107.9-28.3-43.9-33.2-56.2-32.2-79.9 1-21.7 8.3-37.9 24.1-53.6 28.4-28 90.1-31.1 119.5-0.2 18 18.8 21.2 26.6 22.7 50.7 2.5 32.5-18.1 61.8-31.6 82.8-28.3 43.8-39.1 65.7-47.1 96.1-3.1 11.8-4.4 14.7-5.3 12.1z" style="fill:url(#linearGradient3813-6);stroke-width:6;stroke:#5a0000"/><path d="m-962.9 1042.4c0 16.6-14.1 30-31.4 30-17.4 0-31.4-13.4-31.4-30 0-16.6 14.1-30 31.4-30s31.4 13.4 31.4 30z" fill="#2b0000"/></g><path d="m61.1 993.8-3 8.2c-0.2 0.7-0.3 1.3-0.3 1.9 0 0.6 0 1.2 0.1 1.7 0.1 0.5 0.2 0.9 0.5 1.2 3.8 3.7-3 15.3-4.5 20-0.3 1 2.9 2.1 3.4 0.9 1.1-6 0.5-17.2 6-19.6 0.3-0.2 0.7-0.5 1-0.8 0.3-0.4 0.6-0.8 0.9-1.4 0.3-0.6 0.5-1.2 0.7-1.8l1.5-8.6-0.5-0.1-2.5 8.3c-0.1 0.2-0.1 0.4-0.2 0.6-0.1 0.2-0.2 0.3-0.3 0.5-0.1 0.1-0.2 0.2-0.3 0.3-0.1 0.1-0.2 0.1-0.3 0-0.1 0-0.2-0.1-0.3-0.2-0.1-0.1-0.1-0.2-0.2-0.4 0-0.2 0-0.3 0-0.6 0-0.2 0-0.4 0.1-0.6l1.8-8.5-0.6-0.2-2.7 8.3c-0.1 0.2-0.1 0.4-0.2 0.6-0.1 0.2-0.2 0.3-0.3 0.5-0.1 0.1-0.2 0.2-0.3 0.3-0.1 0.1-0.2 0.1-0.3 0-0.1 0-0.2-0.1-0.3-0.2-0.1-0.1-0.1-0.2-0.1-0.4 0-0.2 0-0.3 0-0.6 0-0.2 0-0.4 0.1-0.6l2-8.4z" fill="#280b0b"/><g transform="matrix(0.04732 -0.012544 0.011518 0.042527 30.271 954.36)" class="a"><path d="m-269.8 992c0 72.3-44.5 165.1-99.4 165.1s-99.4-92.8-99.4-165.1c0-72.3 44.5-162 99.4-162 54.9 0 99.4 89.7 99.4 162z" class="a"/><path d="m-364.4 1141.8h0.3c0.1 0 0.1 0.1 0.1 0.1l25.9 465.5c-2.2 26.9-52.1 22.9-52.2 0l25.9-465.4c0-0.1 0-0.1 0.1-0.1z" class="a"/></g><g transform="matrix(0.04732 -0.012544 0.011518 0.042527 29.241 953.33)" fill="url(#radialGradient3821-5)"><path d="m-269.8 992c0 72.3-44.5 165.1-99.4 165.1s-99.4-92.8-99.4-165.1c0-72.3 44.5-162 99.4-162 54.9 0 99.4 89.7 99.4 162z" class="b"/><path d="m-364.4 1141.8h0.3c0.1 0 0.1 0.1 0.1 0.1l25.9 465.5c-2.2 26.9-52.1 22.9-52.2 0l25.9-465.4c0-0.1 0-0.1 0.1-0.1z" class="b"/></g><path d="m60.7 993-3 8.2c-0.2 0.7-0.3 1.3-0.3 1.9 0 0.6 0 1.2 0.1 1.7 0.1 0.5 0.2 0.9 0.5 1.2 3.8 3.7-3 15.3-4.5 20-0.3 1 2.9 2.1 3.4 0.9 1.1-6 0.5-17.2 6-19.6 0.3-0.2 0.7-0.5 1-0.8 0.3-0.4 0.6-0.8 0.9-1.4 0.3-0.6 0.5-1.2 0.7-1.8l1.5-8.6-0.5-0.1-2.5 8.3c-0.1 0.2-0.1 0.4-0.2 0.6-0.1 0.2-0.2 0.3-0.3 0.5-0.1 0.1-0.2 0.2-0.3 0.3-0.1 0.1-0.2 0.1-0.3 0-0.1 0-0.2-0.1-0.3-0.2-0.1-0.1-0.1-0.2-0.2-0.4 0-0.2 0-0.3 0-0.6 0-0.2 0-0.4 0.1-0.6l1.8-8.5-0.6-0.2-2.7 8.3c-0.1 0.2-0.1 0.4-0.2 0.6-0.1 0.2-0.2 0.3-0.3 0.5-0.1 0.1-0.2 0.2-0.3 0.3-0.1 0.1-0.2 0.1-0.3 0-0.1 0-0.2-0.1-0.3-0.2-0.1-0.1-0.1-0.2-0.1-0.4 0-0.2 0-0.3 0-0.6 0-0.2 0-0.4 0.1-0.6l2-8.4z" class="b"/></g></svg>